<svg width="28" height="28" viewBox="0 0 28 28" fill="none" xmlns="http://www.w3.org/2000/svg">
<path d="M14.0001 1.16912C7.06432 1.03238 1.32511 6.53193 1.16675 13.4665C1.18485 16.9965 2.74806 20.3416 5.44451 22.6201V26.2986C5.44451 26.5939 5.68393 26.8333 5.97925 26.8333C6.07946 26.8333 6.17766 26.8051 6.26263 26.752L9.24318 24.8903C10.7617 25.4711 12.3743 25.7672 14.0001 25.764C20.9358 25.9007 26.6751 20.4012 26.8334 13.4666C26.6751 6.53193 20.9358 1.03238 14.0001 1.16912Z" fill="#2196F3"/>
<path d="M22.6397 10.1176C22.477 9.91825 22.1787 9.85858 21.9397 9.97763L16.2523 12.8124L12.7141 10.0386C12.4971 9.86856 12.1735 9.87986 11.9715 10.0646L5.40901 16.0642C5.19609 16.26 5.19712 16.5766 5.41137 16.7712C5.58266 16.9269 5.84531 16.9614 6.05762 16.8561L11.745 14.0213L15.2866 16.7961C15.5035 16.9662 15.8271 16.9549 16.0292 16.7701L22.5916 10.7706C22.7829 10.5941 22.8034 10.316 22.6397 10.1176Z" fill="#FAFAFA"/>
</svg>
