<svg width="20" height="20" viewBox="0 0 20 20" fill="none" xmlns="http://www.w3.org/2000/svg">
<path d="M14.0835 18.9833H5.91685C3.22185 18.9833 1.01685 16.7783 1.01685 14.0833V5.9166C1.01685 3.2216 3.22185 1.0166 5.91685 1.0166H14.0835C16.7785 1.0166 18.9835 3.2216 18.9835 5.9166V14.0833C18.9835 16.7783 16.7785 18.9833 14.0835 18.9833ZM5.91685 2.64994C4.12018 2.64994 2.65018 4.11994 2.65018 5.9166V14.0833C2.65018 15.8799 4.12018 17.3499 5.91685 17.3499H14.0835C15.8802 17.3499 17.3502 15.8799 17.3502 14.0833V5.9166C17.3502 4.11994 15.8802 2.64994 14.0835 2.64994H5.91685Z" fill="url(#paint0_linear_4_218)"/>
<path d="M10.0003 14.0832C7.75449 14.0832 5.91699 12.2457 5.91699 9.99984C5.91699 7.754 7.75449 5.9165 10.0003 5.9165C12.2462 5.9165 14.0837 7.754 14.0837 9.99984C14.0837 12.2457 12.2462 14.0832 10.0003 14.0832ZM10.0003 7.54984C8.65283 7.54984 7.55033 8.65234 7.55033 9.99984C7.55033 11.3473 8.65283 12.4498 10.0003 12.4498C11.3478 12.4498 12.4503 11.3473 12.4503 9.99984C12.4503 8.65234 11.3478 7.54984 10.0003 7.54984Z" fill="url(#paint1_linear_4_218)"/>
<circle cx="14.8952" cy="5.10488" r="1.225" fill="url(#paint2_linear_4_218)"/>
<defs>
<linearGradient id="paint0_linear_4_218" x1="3.55835" y1="6.81722" x2="21.1428" y2="15.5053" gradientUnits="userSpaceOnUse">
<stop stop-color="#934FCB"/>
<stop offset="0.5031" stop-color="#D0285D"/>
<stop offset="1" stop-color="#FF8E0A"/>
</linearGradient>
<linearGradient id="paint1_linear_4_218" x1="7.07262" y1="8.5534" x2="15.0644" y2="12.5019" gradientUnits="userSpaceOnUse">
<stop stop-color="#934FCB"/>
<stop offset="0.5031" stop-color="#D0285D"/>
<stop offset="1" stop-color="#FF8E0A"/>
</linearGradient>
<linearGradient id="paint2_linear_4_218" x1="14.6782" y1="3.33186" x2="17.0764" y2="4.51675" gradientUnits="userSpaceOnUse">
<stop stop-color="#934FCB"/>
<stop offset="0.503125" stop-color="#D0285D"/>
<stop offset="1" stop-color="#FF8E0A"/>
</linearGradient>
</defs>
</svg>
